solid OpenSCAD_Model
  facet normal -1 0 0
    outer loop
      vertex 4.5 43 2
      vertex 4.5 41 11
      vertex 4.5 43 13
    endloop
  endfacet
  facet normal -1 0 0
    outer loop
      vertex 4.5 39 2
      vertex 4.5 41 11
      vertex 4.5 43 2
    endloop
  endfacet
  facet normal -1 -0 0
    outer loop
      vertex 4.5 41 11
      vertex 4.5 39 2
      vertex 4.5 39 11
    endloop
  endfacet
  facet normal -1 -0 0
    outer loop
      vertex 4.5 43 13
      vertex 4.5 41 11
      vertex 4.5 41 13
    endloop
  endfacet
  facet normal -1 0 0
    outer loop
      vertex 4.5 19 2
      vertex 4.5 23 11
      vertex 4.5 23 2
    endloop
  endfacet
  facet normal -1 -0 0
    outer loop
      vertex 4.5 23 11
      vertex 4.5 19 2
      vertex 4.5 19 11
    endloop
  endfacet
  facet normal -0 0 1
    outer loop
      vertex 23 21 13
      vertex 37.5 19 13
      vertex 37.5 21 13
    endloop
  endfacet
  facet normal 0 0 1
    outer loop
      vertex 37.5 19 13
      vertex 23 21 13
      vertex 23 19 13
    endloop
  endfacet
  facet normal -0 0 1
    outer loop
      vertex 4.5 43 13
      vertex 37.5 41 13
      vertex 37.5 43 13
    endloop
  endfacet
  facet normal 0 0 1
    outer loop
      vertex 37.5 41 13
      vertex 4.5 43 13
      vertex 4.5 41 13
    endloop
  endfacet
  facet normal 1 0 0
    outer loop
      vertex 37.5 21 13
      vertex 37.5 19 13
      vertex 37.5 21 11
    endloop
  endfacet
  facet normal 1 -0 0
    outer loop
      vertex 37.5 21 11
      vertex 37.5 23 2
      vertex 37.5 23 11
    endloop
  endfacet
  facet normal 1 0 0
    outer loop
      vertex 37.5 19 2
      vertex 37.5 21 11
      vertex 37.5 19 13
    endloop
  endfacet
  facet normal 1 0 0
    outer loop
      vertex 37.5 21 11
      vertex 37.5 19 2
      vertex 37.5 23 2
    endloop
  endfacet
  facet normal 1 0 0
    outer loop
      vertex 37.5 41 11
      vertex 37.5 43 13
      vertex 37.5 41 13
    endloop
  endfacet
  facet normal 1 0 0
    outer loop
      vertex 37.5 43 13
      vertex 37.5 41 11
      vertex 37.5 43 2
    endloop
  endfacet
  facet normal 1 0 0
    outer loop
      vertex 37.5 39 2
      vertex 37.5 41 11
      vertex 37.5 39 11
    endloop
  endfacet
  facet normal 1 0 0
    outer loop
      vertex 37.5 41 11
      vertex 37.5 39 2
      vertex 37.5 43 2
    endloop
  endfacet
  facet normal 0 1 -0
    outer loop
      vertex 37.5 43 2
      vertex 4.5 43 13
      vertex 37.5 43 13
    endloop
  endfacet
  facet normal 0 1 0
    outer loop
      vertex 4.5 43 13
      vertex 37.5 43 2
      vertex 4.5 43 2
    endloop
  endfacet
  facet normal 0 -1 0
    outer loop
      vertex 4.5 19 11
      vertex 4.5 19 2
      vertex 23 19 11
    endloop
  endfacet
  facet normal 0 -1 0
    outer loop
      vertex 23 19 11
      vertex 37.5 19 13
      vertex 23 19 13
    endloop
  endfacet
  facet normal 0 -1 0
    outer loop
      vertex 37.5 19 2
      vertex 23 19 11
      vertex 4.5 19 2
    endloop
  endfacet
  facet normal 0 -1 0
    outer loop
      vertex 23 19 11
      vertex 37.5 19 2
      vertex 37.5 19 13
    endloop
  endfacet
  facet normal 0 -1 0
    outer loop
      vertex 4.5 41 11
      vertex 37.5 41 13
      vertex 4.5 41 13
    endloop
  endfacet
  facet normal 0 -1 -0
    outer loop
      vertex 37.5 41 13
      vertex 4.5 41 11
      vertex 37.5 41 11
    endloop
  endfacet
  facet normal 0 0 1
    outer loop
      vertex 37.5 41 11
      vertex 35 39 11
      vertex 37.5 39 11
    endloop
  endfacet
  facet normal 0 0 1
    outer loop
      vertex 35 39 11
      vertex 23 21 11
      vertex 35 23 11
    endloop
  endfacet
  facet normal -0 0 1
    outer loop
      vertex 7 23 11
      vertex 23 21 11
      vertex 7 39 11
    endloop
  endfacet
  facet normal 0 0 1
    outer loop
      vertex 35 39 11
      vertex 7 39 11
      vertex 23 21 11
    endloop
  endfacet
  facet normal 0 0 1
    outer loop
      vertex 37.5 41 11
      vertex 7 39 11
      vertex 35 39 11
    endloop
  endfacet
  facet normal -0 0 1
    outer loop
      vertex 4.5 41 11
      vertex 7 39 11
      vertex 37.5 41 11
    endloop
  endfacet
  facet normal 0 0 1
    outer loop
      vertex 7 39 11
      vertex 4.5 41 11
      vertex 4.5 39 11
    endloop
  endfacet
  facet normal -0 0 1
    outer loop
      vertex 35 23 11
      vertex 37.5 21 11
      vertex 37.5 23 11
    endloop
  endfacet
  facet normal 0 0 1
    outer loop
      vertex 37.5 21 11
      vertex 35 23 11
      vertex 23 21 11
    endloop
  endfacet
  facet normal 0 0 1
    outer loop
      vertex 23 21 11
      vertex 7 23 11
      vertex 23 19 11
    endloop
  endfacet
  facet normal 0 0 1
    outer loop
      vertex 4.5 19 11
      vertex 7 23 11
      vertex 4.5 23 11
    endloop
  endfacet
  facet normal 0 0 1
    outer loop
      vertex 7 23 11
      vertex 4.5 19 11
      vertex 23 19 11
    endloop
  endfacet
  facet normal 0 1 -0
    outer loop
      vertex 37.5 21 11
      vertex 23 21 13
      vertex 37.5 21 13
    endloop
  endfacet
  facet normal 0 1 0
    outer loop
      vertex 23 21 13
      vertex 37.5 21 11
      vertex 23 21 11
    endloop
  endfacet
  facet normal -1 0 0
    outer loop
      vertex 23 19 11
      vertex 23 21 13
      vertex 23 21 11
    endloop
  endfacet
  facet normal -1 -0 0
    outer loop
      vertex 23 21 13
      vertex 23 19 11
      vertex 23 19 13
    endloop
  endfacet
  facet normal -1 0 0
    outer loop
      vertex 0 0 0
      vertex 0 62 2
      vertex 0 62 0
    endloop
  endfacet
  facet normal -1 -0 0
    outer loop
      vertex 0 62 2
      vertex 0 0 0
      vertex 0 0 2
    endloop
  endfacet
  facet normal -0 0 1
    outer loop
      vertex 4 23 2
      vertex 4.5 19 2
      vertex 4.5 23 2
    endloop
  endfacet
  facet normal 0 0 1
    outer loop
      vertex 0 0 2
      vertex 4.5 19 2
      vertex 4 23 2
    endloop
  endfacet
  facet normal 0 0 1
    outer loop
      vertex 4 39 2
      vertex 0 62 2
      vertex 4 23 2
    endloop
  endfacet
  facet normal 0 0 1
    outer loop
      vertex 4.5 19 2
      vertex 2.78647 4.88168 2
      vertex 4.46352 5.42658 2
    endloop
  endfacet
  facet normal 0 0 1
    outer loop
      vertex 37.5 43 2
      vertex 39.5 58 2
      vertex 38.4635 56.5734 2
    endloop
  endfacet
  facet normal 0 0 1
    outer loop
      vertex 39.5 58 2
      vertex 38 39 2
      vertex 39.5 4 2
    endloop
  endfacet
  facet normal -0 0 1
    outer loop
      vertex 38 23 2
      vertex 39.5 4 2
      vertex 38 39 2
    endloop
  endfacet
  facet normal 0 0 1
    outer loop
      vertex 39.5 58 2
      vertex 37.5 43 2
      vertex 38 39 2
    endloop
  endfacet
  facet normal 0 0 1
    outer loop
      vertex 36.7865 57.1183 2
      vertex 37.5 43 2
      vertex 38.4635 56.5734 2
    endloop
  endfacet
  facet normal 0 0 1
    outer loop
      vertex 4.5 43 2
      vertex 36.7865 57.1183 2
      vertex 5.5 58 2
    endloop
  endfacet
  facet normal 0 0 1
    outer loop
      vertex 36.7865 57.1183 2
      vertex 4.5 43 2
      vertex 37.5 43 2
    endloop
  endfacet
  facet normal -0 0 1
    outer loop
      vertex 4.46352 56.5734 2
      vertex 4.5 43 2
      vertex 5.5 58 2
    endloop
  endfacet
  facet normal 0 0 1
    outer loop
      vertex 2.78647 57.1183 2
      vertex 4.5 43 2
      vertex 4.46352 56.5734 2
    endloop
  endfacet
  facet normal 0 0 1
    outer loop
      vertex 4.5 43 2
      vertex 4 39 2
      vertex 4.5 39 2
    endloop
  endfacet
  facet normal 0 0 1
    outer loop
      vertex 4.5 43 2
      vertex 0 62 2
      vertex 4 39 2
    endloop
  endfacet
  facet normal 0 0 1
    outer loop
      vertex 0 62 2
      vertex 4.5 43 2
      vertex 2.78647 57.1183 2
    endloop
  endfacet
  facet normal 0 0 1
    outer loop
      vertex 42 62 2
      vertex 39.5 58 2
      vertex 42 0 2
    endloop
  endfacet
  facet normal 0 0 1
    outer loop
      vertex 42 62 2
      vertex 38.4635 59.4266 2
      vertex 39.5 58 2
    endloop
  endfacet
  facet normal 0 0 1
    outer loop
      vertex 42 62 2
      vertex 36.7865 58.8817 2
      vertex 38.4635 59.4266 2
    endloop
  endfacet
  facet normal 0 0 1
    outer loop
      vertex 36.7865 58.8817 2
      vertex 5.5 58 2
      vertex 36.7865 57.1183 2
    endloop
  endfacet
  facet normal -0 0 1
    outer loop
      vertex 4.46352 59.4266 2
      vertex 36.7865 58.8817 2
      vertex 42 62 2
    endloop
  endfacet
  facet normal 0 0 1
    outer loop
      vertex 36.7865 58.8817 2
      vertex 4.46352 59.4266 2
      vertex 5.5 58 2
    endloop
  endfacet
  facet normal 0 0 1
    outer loop
      vertex 0 62 2
      vertex 2.78647 57.1183 2
      vertex 2.78647 58.8817 2
    endloop
  endfacet
  facet normal 0 0 1
    outer loop
      vertex 0 0 2
      vertex 4 23 2
      vertex 0 62 2
    endloop
  endfacet
  facet normal 0 0 1
    outer loop
      vertex 4.5 19 2
      vertex 0 0 2
      vertex 2.78647 4.88168 2
    endloop
  endfacet
  facet normal 0 0 1
    outer loop
      vertex 4.46352 59.4266 2
      vertex 0 62 2
      vertex 2.78647 58.8817 2
    endloop
  endfacet
  facet normal -0 0 1
    outer loop
      vertex 0 62 2
      vertex 4.46352 59.4266 2
      vertex 42 62 2
    endloop
  endfacet
  facet normal -0 0 1
    outer loop
      vertex 39.5 4 2
      vertex 42 0 2
      vertex 39.5 58 2
    endloop
  endfacet
  facet normal -0 0 1
    outer loop
      vertex 38.4635 2.57341 2
      vertex 42 0 2
      vertex 39.5 4 2
    endloop
  endfacet
  facet normal 0 0 1
    outer loop
      vertex 36.7865 3.11832 2
      vertex 42 0 2
      vertex 38.4635 2.57341 2
    endloop
  endfacet
  facet normal 0 0 1
    outer loop
      vertex 36.7865 3.11832 2
      vertex 27.075 0 2
      vertex 42 0 2
    endloop
  endfacet
  facet normal 0 0 1
    outer loop
      vertex 36.7865 4.88168 2
      vertex 27.075 0 2
      vertex 36.7865 3.11832 2
    endloop
  endfacet
  facet normal -0 0 1
    outer loop
      vertex 37.5 19 2
      vertex 39.5 4 2
      vertex 38 23 2
    endloop
  endfacet
  facet normal 0 0 1
    outer loop
      vertex 37.5 19 2
      vertex 38 23 2
      vertex 37.5 23 2
    endloop
  endfacet
  facet normal 0 0 1
    outer loop
      vertex 39.5 4 2
      vertex 37.5 19 2
      vertex 38.4635 5.42658 2
    endloop
  endfacet
  facet normal 0 0 1
    outer loop
      vertex 37.5 19 2
      vertex 36.7865 4.88168 2
      vertex 38.4635 5.42658 2
    endloop
  endfacet
  facet normal 0 0 1
    outer loop
      vertex 27.075 0 2
      vertex 36.7865 4.88168 2
      vertex 27.075 12.15 2
    endloop
  endfacet
  facet normal 0 0 1
    outer loop
      vertex 37.5 19 2
      vertex 27.075 12.15 2
      vertex 36.7865 4.88168 2
    endloop
  endfacet
  facet normal 0 0 1
    outer loop
      vertex 37.5 19 2
      vertex 14.925 12.15 2
      vertex 27.075 12.15 2
    endloop
  endfacet
  facet normal 0 0 1
    outer loop
      vertex 14.925 12.15 2
      vertex 5.5 4 2
      vertex 14.925 0 2
    endloop
  endfacet
  facet normal -0 0 1
    outer loop
      vertex 4.5 19 2
      vertex 14.925 12.15 2
      vertex 37.5 19 2
    endloop
  endfacet
  facet normal 0 0 1
    outer loop
      vertex 4.46352 5.42658 2
      vertex 14.925 12.15 2
      vertex 4.5 19 2
    endloop
  endfacet
  facet normal 0 0 1
    outer loop
      vertex 14.925 12.15 2
      vertex 4.46352 5.42658 2
      vertex 5.5 4 2
    endloop
  endfacet
  facet normal 0 0 1
    outer loop
      vertex 38 39 2
      vertex 37.5 43 2
      vertex 37.5 39 2
    endloop
  endfacet
  facet normal -0 0 1
    outer loop
      vertex 4.46352 2.57341 2
      vertex 14.925 0 2
      vertex 5.5 4 2
    endloop
  endfacet
  facet normal 0 0 1
    outer loop
      vertex 4.46352 2.57341 2
      vertex 0 0 2
      vertex 14.925 0 2
    endloop
  endfacet
  facet normal 0 0 1
    outer loop
      vertex 2.78647 3.11832 2
      vertex 0 0 2
      vertex 4.46352 2.57341 2
    endloop
  endfacet
  facet normal 0 0 1
    outer loop
      vertex 2.78647 4.88168 2
      vertex 0 0 2
      vertex 2.78647 3.11832 2
    endloop
  endfacet
  facet normal 1 -0 0
    outer loop
      vertex 42 0 2
      vertex 42 62 0
      vertex 42 62 2
    endloop
  endfacet
  facet normal 1 0 0
    outer loop
      vertex 42 62 0
      vertex 42 0 2
      vertex 42 0 0
    endloop
  endfacet
  facet normal 0 1 -0
    outer loop
      vertex 42 62 0
      vertex 0 62 2
      vertex 42 62 2
    endloop
  endfacet
  facet normal 0 1 0
    outer loop
      vertex 0 62 2
      vertex 42 62 0
      vertex 0 62 0
    endloop
  endfacet
  facet normal 0 0 -1
    outer loop
      vertex 7 39 0
      vertex 4.46352 56.5734 0
      vertex 5.5 58 0
    endloop
  endfacet
  facet normal 0 0 -1
    outer loop
      vertex 4 39 0
      vertex 4.46352 56.5734 0
      vertex 7 39 0
    endloop
  endfacet
  facet normal -0 0 -1
    outer loop
      vertex 4 23 0
      vertex 0 0 0
      vertex 4 39 0
    endloop
  endfacet
  facet normal 0 0 -1
    outer loop
      vertex 4 39 0
      vertex 2.78647 57.1183 0
      vertex 4.46352 56.5734 0
    endloop
  endfacet
  facet normal -0 0 -1
    outer loop
      vertex 14.925 10.15 0
      vertex 4.46352 5.42658 0
      vertex 7 23 0
    endloop
  endfacet
  facet normal 0 0 -1
    outer loop
      vertex 4.46352 5.42658 0
      vertex 4 23 0
      vertex 7 23 0
    endloop
  endfacet
  facet normal 0 0 -1
    outer loop
      vertex 0 0 0
      vertex 4 23 0
      vertex 2.78647 4.88168 0
    endloop
  endfacet
  facet normal 0 0 -1
    outer loop
      vertex 2.78647 4.88168 0
      vertex 4 23 0
      vertex 4.46352 5.42658 0
    endloop
  endfacet
  facet normal 0 0 -1
    outer loop
      vertex 38 23 0
      vertex 39.5 4 0
      vertex 38.4635 5.42658 0
    endloop
  endfacet
  facet normal 0 0 -1
    outer loop
      vertex 39.5 4 0
      vertex 38 23 0
      vertex 39.5 58 0
    endloop
  endfacet
  facet normal 0 0 -1
    outer loop
      vertex 38 39 0
      vertex 39.5 58 0
      vertex 38 23 0
    endloop
  endfacet
  facet normal 0 0 -1
    outer loop
      vertex 27.075 10.15 0
      vertex 38.4635 5.42658 0
      vertex 36.7865 4.88168 0
    endloop
  endfacet
  facet normal 0 0 -1
    outer loop
      vertex 38.4635 5.42658 0
      vertex 35 23 0
      vertex 38 23 0
    endloop
  endfacet
  facet normal 0 0 -1
    outer loop
      vertex 42 0 0
      vertex 39.5 4 0
      vertex 42 62 0
    endloop
  endfacet
  facet normal 0 0 -1
    outer loop
      vertex 42 0 0
      vertex 38.4635 2.57341 0
      vertex 39.5 4 0
    endloop
  endfacet
  facet normal 0 0 -1
    outer loop
      vertex 42 0 0
      vertex 36.7865 3.11832 0
      vertex 38.4635 2.57341 0
    endloop
  endfacet
  facet normal 0 0 -1
    outer loop
      vertex 27.075 2 0
      vertex 36.7865 4.88168 0
      vertex 36.7865 3.11832 0
    endloop
  endfacet
  facet normal 0 0 -1
    outer loop
      vertex 38.4635 5.42658 0
      vertex 27.075 10.15 0
      vertex 35 23 0
    endloop
  endfacet
  facet normal -0 0 -1
    outer loop
      vertex 36.7865 4.88168 0
      vertex 27.075 2 0
      vertex 27.075 10.15 0
    endloop
  endfacet
  facet normal 0 0 -1
    outer loop
      vertex 42 0 0
      vertex 27.075 2 0
      vertex 36.7865 3.11832 0
    endloop
  endfacet
  facet normal 0 0 -1
    outer loop
      vertex 42 0 0
      vertex 25.075 2 0
      vertex 27.075 2 0
    endloop
  endfacet
  facet normal 0 0 -1
    outer loop
      vertex 25.075 2 0
      vertex 16.925 2 0
      vertex 25.075 10.15 0
    endloop
  endfacet
  facet normal 0 0 -1
    outer loop
      vertex 42 0 0
      vertex 16.925 2 0
      vertex 25.075 2 0
    endloop
  endfacet
  facet normal 0 0 -1
    outer loop
      vertex 0 0 0
      vertex 16.925 2 0
      vertex 42 0 0
    endloop
  endfacet
  facet normal 0 0 -1
    outer loop
      vertex 5.5 4 0
      vertex 14.925 10.15 0
      vertex 14.925 2 0
    endloop
  endfacet
  facet normal 0 0 -1
    outer loop
      vertex 4.46352 5.42658 0
      vertex 14.925 10.15 0
      vertex 5.5 4 0
    endloop
  endfacet
  facet normal 0 0 -1
    outer loop
      vertex 14.925 2 0
      vertex 4.46352 2.57341 0
      vertex 5.5 4 0
    endloop
  endfacet
  facet normal -0 0 -1
    outer loop
      vertex 16.925 2 0
      vertex 0 0 0
      vertex 14.925 2 0
    endloop
  endfacet
  facet normal 0 0 -1
    outer loop
      vertex 0 0 0
      vertex 2.78647 4.88168 0
      vertex 2.78647 3.11832 0
    endloop
  endfacet
  facet normal 0 0 -1
    outer loop
      vertex 0 62 0
      vertex 4 39 0
      vertex 0 0 0
    endloop
  endfacet
  facet normal 0 0 -1
    outer loop
      vertex 4 39 0
      vertex 0 62 0
      vertex 2.78647 57.1183 0
    endloop
  endfacet
  facet normal -0 0 -1
    outer loop
      vertex 4.46352 2.57341 0
      vertex 0 0 0
      vertex 2.78647 3.11832 0
    endloop
  endfacet
  facet normal -0 0 -1
    outer loop
      vertex 14.925 2 0
      vertex 0 0 0
      vertex 4.46352 2.57341 0
    endloop
  endfacet
  facet normal 0 0 -1
    outer loop
      vertex 39.5 58 0
      vertex 42 62 0
      vertex 39.5 4 0
    endloop
  endfacet
  facet normal 0 0 -1
    outer loop
      vertex 38.4635 59.4266 0
      vertex 42 62 0
      vertex 39.5 58 0
    endloop
  endfacet
  facet normal 0 0 -1
    outer loop
      vertex 36.7865 58.8817 0
      vertex 42 62 0
      vertex 38.4635 59.4266 0
    endloop
  endfacet
  facet normal 0 0 -1
    outer loop
      vertex 25.075 10.15 0
      vertex 35 23 0
      vertex 27.075 10.15 0
    endloop
  endfacet
  facet normal 0 0 -1
    outer loop
      vertex 7 23 0
      vertex 35 23 0
      vertex 25.075 10.15 0
    endloop
  endfacet
  facet normal 0 0 -1
    outer loop
      vertex 35 23 0
      vertex 7 23 0
      vertex 35 39 0
    endloop
  endfacet
  facet normal 0 0 -1
    outer loop
      vertex 16.925 10.15 0
      vertex 25.075 10.15 0
      vertex 16.925 2 0
    endloop
  endfacet
  facet normal 0 0 -1
    outer loop
      vertex 7 23 0
      vertex 25.075 10.15 0
      vertex 16.925 10.15 0
    endloop
  endfacet
  facet normal 0 0 -1
    outer loop
      vertex 7 23 0
      vertex 16.925 10.15 0
      vertex 14.925 10.15 0
    endloop
  endfacet
  facet normal -0 0 -1
    outer loop
      vertex 35 39 0
      vertex 7 23 0
      vertex 7 39 0
    endloop
  endfacet
  facet normal 0 0 -1
    outer loop
      vertex 5.5 58 0
      vertex 35 39 0
      vertex 7 39 0
    endloop
  endfacet
  facet normal 0 0 -1
    outer loop
      vertex 35 39 0
      vertex 5.5 58 0
      vertex 36.7865 58.8817 0
    endloop
  endfacet
  facet normal 0 0 -1
    outer loop
      vertex 4.46352 59.4266 0
      vertex 36.7865 58.8817 0
      vertex 5.5 58 0
    endloop
  endfacet
  facet normal 0 0 -1
    outer loop
      vertex 36.7865 58.8817 0
      vertex 4.46352 59.4266 0
      vertex 42 62 0
    endloop
  endfacet
  facet normal 0 0 -1
    outer loop
      vertex 4.46352 59.4266 0
      vertex 0 62 0
      vertex 42 62 0
    endloop
  endfacet
  facet normal 0 0 -1
    outer loop
      vertex 2.78647 58.8817 0
      vertex 0 62 0
      vertex 4.46352 59.4266 0
    endloop
  endfacet
  facet normal 0 0 -1
    outer loop
      vertex 2.78647 57.1183 0
      vertex 0 62 0
      vertex 2.78647 58.8817 0
    endloop
  endfacet
  facet normal 0 0 -1
    outer loop
      vertex 39.5 58 0
      vertex 38 39 0
      vertex 38.4635 56.5734 0
    endloop
  endfacet
  facet normal 0 0 -1
    outer loop
      vertex 35 39 0
      vertex 38.4635 56.5734 0
      vertex 38 39 0
    endloop
  endfacet
  facet normal -0 0 -1
    outer loop
      vertex 36.7865 57.1183 0
      vertex 35 39 0
      vertex 36.7865 58.8817 0
    endloop
  endfacet
  facet normal -0 0 -1
    outer loop
      vertex 38.4635 56.5734 0
      vertex 35 39 0
      vertex 36.7865 57.1183 0
    endloop
  endfacet
  facet normal 0 -1 0
    outer loop
      vertex 0 0 2
      vertex 14.925 0 1
      vertex 14.925 0 2
    endloop
  endfacet
  facet normal 0 -1 -0
    outer loop
      vertex 14.925 0 1
      vertex 0 0 0
      vertex 27.075 0 1
    endloop
  endfacet
  facet normal 0 -1 0
    outer loop
      vertex 0 0 0
      vertex 14.925 0 1
      vertex 0 0 2
    endloop
  endfacet
  facet normal 0 -1 0
    outer loop
      vertex 27.075 0 1
      vertex 42 0 2
      vertex 27.075 0 2
    endloop
  endfacet
  facet normal 0 -1 0
    outer loop
      vertex 27.075 0 1
      vertex 42 0 0
      vertex 42 0 2
    endloop
  endfacet
  facet normal 0 -1 0
    outer loop
      vertex 42 0 0
      vertex 27.075 0 1
      vertex 0 0 0
    endloop
  endfacet
  facet normal 1 -0 0
    outer loop
      vertex 4 23 2
      vertex 4 39 0
      vertex 4 39 2
    endloop
  endfacet
  facet normal 1 0 0
    outer loop
      vertex 4 39 0
      vertex 4 23 2
      vertex 4 23 0
    endloop
  endfacet
  facet normal -1 0 0
    outer loop
      vertex 7 23 0
      vertex 7 39 11
      vertex 7 39 0
    endloop
  endfacet
  facet normal -1 -0 0
    outer loop
      vertex 7 39 11
      vertex 7 23 0
      vertex 7 23 11
    endloop
  endfacet
  facet normal 0 -1 0
    outer loop
      vertex 4 39 2
      vertex 4 39 0
      vertex 4.5 39 2
    endloop
  endfacet
  facet normal 0 -1 0
    outer loop
      vertex 4.5 39 2
      vertex 7 39 11
      vertex 4.5 39 11
    endloop
  endfacet
  facet normal 0 -1 0
    outer loop
      vertex 7 39 0
      vertex 4.5 39 2
      vertex 4 39 0
    endloop
  endfacet
  facet normal 0 -1 0
    outer loop
      vertex 4.5 39 2
      vertex 7 39 0
      vertex 7 39 11
    endloop
  endfacet
  facet normal 0 1 0
    outer loop
      vertex 7 23 11
      vertex 4.5 23 2
      vertex 4.5 23 11
    endloop
  endfacet
  facet normal 0 1 -0
    outer loop
      vertex 7 23 0
      vertex 4.5 23 2
      vertex 7 23 11
    endloop
  endfacet
  facet normal 0 1 0
    outer loop
      vertex 4 23 0
      vertex 4.5 23 2
      vertex 7 23 0
    endloop
  endfacet
  facet normal 0 1 0
    outer loop
      vertex 4.5 23 2
      vertex 4 23 0
      vertex 4 23 2
    endloop
  endfacet
  facet normal 1 -0 0
    outer loop
      vertex 35 23 11
      vertex 35 39 0
      vertex 35 39 11
    endloop
  endfacet
  facet normal 1 0 0
    outer loop
      vertex 35 39 0
      vertex 35 23 11
      vertex 35 23 0
    endloop
  endfacet
  facet normal -1 0 0
    outer loop
      vertex 38 23 0
      vertex 38 39 2
      vertex 38 39 0
    endloop
  endfacet
  facet normal -1 -0 0
    outer loop
      vertex 38 39 2
      vertex 38 23 0
      vertex 38 23 2
    endloop
  endfacet
  facet normal 0 1 0
    outer loop
      vertex 38 23 2
      vertex 38 23 0
      vertex 37.5 23 2
    endloop
  endfacet
  facet normal 0 1 -0
    outer loop
      vertex 37.5 23 2
      vertex 35 23 11
      vertex 37.5 23 11
    endloop
  endfacet
  facet normal 0 1 0
    outer loop
      vertex 35 23 0
      vertex 37.5 23 2
      vertex 38 23 0
    endloop
  endfacet
  facet normal 0 1 0
    outer loop
      vertex 37.5 23 2
      vertex 35 23 0
      vertex 35 23 11
    endloop
  endfacet
  facet normal 0 -1 0
    outer loop
      vertex 35 39 11
      vertex 37.5 39 2
      vertex 37.5 39 11
    endloop
  endfacet
  facet normal 0 -1 0
    outer loop
      vertex 35 39 0
      vertex 37.5 39 2
      vertex 35 39 11
    endloop
  endfacet
  facet normal 0 -1 0
    outer loop
      vertex 38 39 0
      vertex 37.5 39 2
      vertex 35 39 0
    endloop
  endfacet
  facet normal 0 -1 0
    outer loop
      vertex 37.5 39 2
      vertex 38 39 0
      vertex 38 39 2
    endloop
  endfacet
  facet normal -0.809015 -0.587789 0
    outer loop
      vertex 5.5 4 0
      vertex 4.46352 5.42658 2
      vertex 4.46352 5.42658 0
    endloop
  endfacet
  facet normal -0.809015 -0.587789 0
    outer loop
      vertex 4.46352 5.42658 2
      vertex 5.5 4 0
      vertex 5.5 4 2
    endloop
  endfacet
  facet normal 1 -0 0
    outer loop
      vertex 2.78647 3.11832 2
      vertex 2.78647 4.88168 0
      vertex 2.78647 4.88168 2
    endloop
  endfacet
  facet normal 1 0 0
    outer loop
      vertex 2.78647 4.88168 0
      vertex 2.78647 3.11832 2
      vertex 2.78647 3.11832 0
    endloop
  endfacet
  facet normal 0.309014 -0.951058 0
    outer loop
      vertex 2.78647 4.88168 0
      vertex 4.46352 5.42658 2
      vertex 2.78647 4.88168 2
    endloop
  endfacet
  facet normal 0.309014 -0.951058 0
    outer loop
      vertex 4.46352 5.42658 2
      vertex 2.78647 4.88168 0
      vertex 4.46352 5.42658 0
    endloop
  endfacet
  facet normal 0.309019 0.951056 -0
    outer loop
      vertex 4.46352 2.57341 0
      vertex 2.78647 3.11832 2
      vertex 4.46352 2.57341 2
    endloop
  endfacet
  facet normal 0.309019 0.951056 0
    outer loop
      vertex 2.78647 3.11832 2
      vertex 4.46352 2.57341 0
      vertex 2.78647 3.11832 0
    endloop
  endfacet
  facet normal -0.809017 0.587786 0
    outer loop
      vertex 4.46352 2.57341 0
      vertex 5.5 4 2
      vertex 5.5 4 0
    endloop
  endfacet
  facet normal -0.809017 0.587786 0
    outer loop
      vertex 5.5 4 2
      vertex 4.46352 2.57341 0
      vertex 4.46352 2.57341 2
    endloop
  endfacet
  facet normal -0.809009 -0.587796 0
    outer loop
      vertex 39.5 4 0
      vertex 38.4635 5.42658 2
      vertex 38.4635 5.42658 0
    endloop
  endfacet
  facet normal -0.809009 -0.587796 0
    outer loop
      vertex 38.4635 5.42658 2
      vertex 39.5 4 0
      vertex 39.5 4 2
    endloop
  endfacet
  facet normal 1 -0 0
    outer loop
      vertex 36.7865 3.11832 2
      vertex 36.7865 4.88168 0
      vertex 36.7865 4.88168 2
    endloop
  endfacet
  facet normal 1 0 0
    outer loop
      vertex 36.7865 4.88168 0
      vertex 36.7865 3.11832 2
      vertex 36.7865 3.11832 0
    endloop
  endfacet
  facet normal 0.309022 -0.951055 0
    outer loop
      vertex 36.7865 4.88168 0
      vertex 38.4635 5.42658 2
      vertex 36.7865 4.88168 2
    endloop
  endfacet
  facet normal 0.309022 -0.951055 0
    outer loop
      vertex 38.4635 5.42658 2
      vertex 36.7865 4.88168 0
      vertex 38.4635 5.42658 0
    endloop
  endfacet
  facet normal -0.809011 0.587793 0
    outer loop
      vertex 38.4635 2.57341 0
      vertex 39.5 4 2
      vertex 39.5 4 0
    endloop
  endfacet
  facet normal -0.809011 0.587793 0
    outer loop
      vertex 39.5 4 2
      vertex 38.4635 2.57341 0
      vertex 38.4635 2.57341 2
    endloop
  endfacet
  facet normal 0.309027 0.951053 -0
    outer loop
      vertex 38.4635 2.57341 0
      vertex 36.7865 3.11832 2
      vertex 38.4635 2.57341 2
    endloop
  endfacet
  facet normal 0.309027 0.951053 0
    outer loop
      vertex 36.7865 3.11832 2
      vertex 38.4635 2.57341 0
      vertex 36.7865 3.11832 0
    endloop
  endfacet
  facet normal -0.809013 -0.587791 0
    outer loop
      vertex 39.5 58 0
      vertex 38.4635 59.4266 2
      vertex 38.4635 59.4266 0
    endloop
  endfacet
  facet normal -0.809013 -0.587791 0
    outer loop
      vertex 38.4635 59.4266 2
      vertex 39.5 58 0
      vertex 39.5 58 2
    endloop
  endfacet
  facet normal 1 -0 0
    outer loop
      vertex 36.7865 57.1183 2
      vertex 36.7865 58.8817 0
      vertex 36.7865 58.8817 2
    endloop
  endfacet
  facet normal 1 0 0
    outer loop
      vertex 36.7865 58.8817 0
      vertex 36.7865 57.1183 2
      vertex 36.7865 57.1183 0
    endloop
  endfacet
  facet normal 0.309022 -0.951055 0
    outer loop
      vertex 36.7865 58.8817 0
      vertex 38.4635 59.4266 2
      vertex 36.7865 58.8817 2
    endloop
  endfacet
  facet normal 0.309022 -0.951055 0
    outer loop
      vertex 38.4635 59.4266 2
      vertex 36.7865 58.8817 0
      vertex 38.4635 59.4266 0
    endloop
  endfacet
  facet normal 0.309022 0.951055 -0
    outer loop
      vertex 38.4635 56.5734 0
      vertex 36.7865 57.1183 2
      vertex 38.4635 56.5734 2
    endloop
  endfacet
  facet normal 0.309022 0.951055 0
    outer loop
      vertex 36.7865 57.1183 2
      vertex 38.4635 56.5734 0
      vertex 36.7865 57.1183 0
    endloop
  endfacet
  facet normal -0.809013 0.587791 0
    outer loop
      vertex 38.4635 56.5734 0
      vertex 39.5 58 2
      vertex 39.5 58 0
    endloop
  endfacet
  facet normal -0.809013 0.587791 0
    outer loop
      vertex 39.5 58 2
      vertex 38.4635 56.5734 0
      vertex 38.4635 56.5734 2
    endloop
  endfacet
  facet normal -0.809018 -0.587783 0
    outer loop
      vertex 5.5 58 0
      vertex 4.46352 59.4266 2
      vertex 4.46352 59.4266 0
    endloop
  endfacet
  facet normal -0.809018 -0.587783 0
    outer loop
      vertex 4.46352 59.4266 2
      vertex 5.5 58 0
      vertex 5.5 58 2
    endloop
  endfacet
  facet normal 1 -0 0
    outer loop
      vertex 2.78647 57.1183 2
      vertex 2.78647 58.8817 0
      vertex 2.78647 58.8817 2
    endloop
  endfacet
  facet normal 1 0 0
    outer loop
      vertex 2.78647 58.8817 0
      vertex 2.78647 57.1183 2
      vertex 2.78647 57.1183 0
    endloop
  endfacet
  facet normal 0.309014 -0.951058 0
    outer loop
      vertex 2.78647 58.8817 0
      vertex 4.46352 59.4266 2
      vertex 2.78647 58.8817 2
    endloop
  endfacet
  facet normal 0.309014 -0.951058 0
    outer loop
      vertex 4.46352 59.4266 2
      vertex 2.78647 58.8817 0
      vertex 4.46352 59.4266 0
    endloop
  endfacet
  facet normal 0.309014 0.951058 -0
    outer loop
      vertex 4.46352 56.5734 0
      vertex 2.78647 57.1183 2
      vertex 4.46352 56.5734 2
    endloop
  endfacet
  facet normal 0.309014 0.951058 0
    outer loop
      vertex 2.78647 57.1183 2
      vertex 4.46352 56.5734 0
      vertex 2.78647 57.1183 0
    endloop
  endfacet
  facet normal -0.809018 0.587783 0
    outer loop
      vertex 4.46352 56.5734 0
      vertex 5.5 58 2
      vertex 5.5 58 0
    endloop
  endfacet
  facet normal -0.809018 0.587783 0
    outer loop
      vertex 5.5 58 2
      vertex 4.46352 56.5734 0
      vertex 4.46352 56.5734 2
    endloop
  endfacet
  facet normal 1 0 0
    outer loop
      vertex 14.925 12.15 2
      vertex 14.925 10.15 1
      vertex 14.925 12.15 1
    endloop
  endfacet
  facet normal 1 0 0
    outer loop
      vertex 14.925 10.15 1
      vertex 14.925 2 1
      vertex 14.925 10.15 0
    endloop
  endfacet
  facet normal 1 0 0
    outer loop
      vertex 14.925 12.15 2
      vertex 14.925 2 1
      vertex 14.925 10.15 1
    endloop
  endfacet
  facet normal 1 -0 0
    outer loop
      vertex 14.925 0 2
      vertex 14.925 2 1
      vertex 14.925 12.15 2
    endloop
  endfacet
  facet normal 1 0 0
    outer loop
      vertex 14.925 2 1
      vertex 14.925 0 2
      vertex 14.925 0 1
    endloop
  endfacet
  facet normal 1 0 0
    outer loop
      vertex 14.925 10.15 0
      vertex 14.925 2 1
      vertex 14.925 2 0
    endloop
  endfacet
  facet normal -1 0 0
    outer loop
      vertex 27.075 10.15 0
      vertex 27.075 2 0
      vertex 27.075 10.15 1
    endloop
  endfacet
  facet normal -1 0 0
    outer loop
      vertex 27.075 10.15 1
      vertex 27.075 12.15 2
      vertex 27.075 12.15 1
    endloop
  endfacet
  facet normal -1 0 0
    outer loop
      vertex 27.075 2 1
      vertex 27.075 10.15 1
      vertex 27.075 2 0
    endloop
  endfacet
  facet normal -1 0 0
    outer loop
      vertex 27.075 10.15 1
      vertex 27.075 2 1
      vertex 27.075 12.15 2
    endloop
  endfacet
  facet normal -1 0 0
    outer loop
      vertex 27.075 0 2
      vertex 27.075 2 1
      vertex 27.075 0 1
    endloop
  endfacet
  facet normal -1 0 0
    outer loop
      vertex 27.075 2 1
      vertex 27.075 0 2
      vertex 27.075 12.15 2
    endloop
  endfacet
  facet normal 0 -1 0
    outer loop
      vertex 14.925 12.15 1
      vertex 27.075 12.15 2
      vertex 14.925 12.15 2
    endloop
  endfacet
  facet normal 0 -1 -0
    outer loop
      vertex 27.075 12.15 2
      vertex 14.925 12.15 1
      vertex 27.075 12.15 1
    endloop
  endfacet
  facet normal 0 0 1
    outer loop
      vertex 27.075 12.15 1
      vertex 25.075 10.15 1
      vertex 27.075 10.15 1
    endloop
  endfacet
  facet normal 0 0 1
    outer loop
      vertex 25.075 10.15 1
      vertex 16.925 10.15 1
      vertex 25.075 2 1
    endloop
  endfacet
  facet normal 0 0 1
    outer loop
      vertex 27.075 12.15 1
      vertex 16.925 10.15 1
      vertex 25.075 10.15 1
    endloop
  endfacet
  facet normal -0 0 1
    outer loop
      vertex 14.925 12.15 1
      vertex 16.925 10.15 1
      vertex 27.075 12.15 1
    endloop
  endfacet
  facet normal 0 0 1
    outer loop
      vertex 16.925 10.15 1
      vertex 14.925 12.15 1
      vertex 14.925 10.15 1
    endloop
  endfacet
  facet normal -0 0 1
    outer loop
      vertex 25.075 2 1
      vertex 27.075 0 1
      vertex 27.075 2 1
    endloop
  endfacet
  facet normal 0 0 1
    outer loop
      vertex 16.925 2 1
      vertex 25.075 2 1
      vertex 16.925 10.15 1
    endloop
  endfacet
  facet normal 0 0 1
    outer loop
      vertex 25.075 2 1
      vertex 16.925 2 1
      vertex 27.075 0 1
    endloop
  endfacet
  facet normal 0 0 1
    outer loop
      vertex 14.925 0 1
      vertex 16.925 2 1
      vertex 14.925 2 1
    endloop
  endfacet
  facet normal 0 0 1
    outer loop
      vertex 16.925 2 1
      vertex 14.925 0 1
      vertex 27.075 0 1
    endloop
  endfacet
  facet normal -1 0 0
    outer loop
      vertex 16.925 2 0
      vertex 16.925 10.15 1
      vertex 16.925 10.15 0
    endloop
  endfacet
  facet normal -1 -0 0
    outer loop
      vertex 16.925 10.15 1
      vertex 16.925 2 0
      vertex 16.925 2 1
    endloop
  endfacet
  facet normal 0 -1 0
    outer loop
      vertex 14.925 10.15 0
      vertex 16.925 10.15 1
      vertex 14.925 10.15 1
    endloop
  endfacet
  facet normal 0 -1 -0
    outer loop
      vertex 16.925 10.15 1
      vertex 14.925 10.15 0
      vertex 16.925 10.15 0
    endloop
  endfacet
  facet normal 0 1 -0
    outer loop
      vertex 16.925 2 0
      vertex 14.925 2 1
      vertex 16.925 2 1
    endloop
  endfacet
  facet normal 0 1 0
    outer loop
      vertex 14.925 2 1
      vertex 16.925 2 0
      vertex 14.925 2 0
    endloop
  endfacet
  facet normal 1 -0 0
    outer loop
      vertex 25.075 2 1
      vertex 25.075 10.15 0
      vertex 25.075 10.15 1
    endloop
  endfacet
  facet normal 1 0 0
    outer loop
      vertex 25.075 10.15 0
      vertex 25.075 2 1
      vertex 25.075 2 0
    endloop
  endfacet
  facet normal 0 -1 0
    outer loop
      vertex 25.075 10.15 0
      vertex 27.075 10.15 1
      vertex 25.075 10.15 1
    endloop
  endfacet
  facet normal 0 -1 -0
    outer loop
      vertex 27.075 10.15 1
      vertex 25.075 10.15 0
      vertex 27.075 10.15 0
    endloop
  endfacet
  facet normal 0 1 -0
    outer loop
      vertex 27.075 2 0
      vertex 25.075 2 1
      vertex 27.075 2 1
    endloop
  endfacet
  facet normal 0 1 0
    outer loop
      vertex 25.075 2 1
      vertex 27.075 2 0
      vertex 25.075 2 0
    endloop
  endfacet
endsolid OpenSCAD_Model
