solid OpenSCAD_Model
  facet normal -1 0 0
    outer loop
      vertex -19 -13 -1
      vertex -19 13 1
      vertex -19 13 -1
    endloop
  endfacet
  facet normal -1 -0 0
    outer loop
      vertex -19 13 1
      vertex -19 -13 -1
      vertex -19 -13 1
    endloop
  endfacet
  facet normal 0 0 1
    outer loop
      vertex 19 13 1
      vertex 13.25 8.75 1
      vertex 19 -13 1
    endloop
  endfacet
  facet normal 0 0 1
    outer loop
      vertex 19 13 1
      vertex -13.25 8.75 1
      vertex 13.25 8.75 1
    endloop
  endfacet
  facet normal 0 0 1
    outer loop
      vertex -13.25 8.75 1
      vertex -19 13 1
      vertex -13.25 -8.75 1
    endloop
  endfacet
  facet normal -0 0 1
    outer loop
      vertex -19 13 1
      vertex -13.25 8.75 1
      vertex 19 13 1
    endloop
  endfacet
  facet normal -0 0 1
    outer loop
      vertex 13.25 -8.75 1
      vertex 19 -13 1
      vertex 13.25 8.75 1
    endloop
  endfacet
  facet normal 0 0 1
    outer loop
      vertex 11 -13 1
      vertex 13.25 -8.75 1
      vertex 11 -8.75 1
    endloop
  endfacet
  facet normal 0 0 1
    outer loop
      vertex 13.25 -8.75 1
      vertex 11 -13 1
      vertex 19 -13 1
    endloop
  endfacet
  facet normal -0 0 1
    outer loop
      vertex -13.25 -8.75 1
      vertex -11 -13 1
      vertex -11 -8.75 1
    endloop
  endfacet
  facet normal 0 0 1
    outer loop
      vertex -13.25 -8.75 1
      vertex -19 -13 1
      vertex -11 -13 1
    endloop
  endfacet
  facet normal 0 0 1
    outer loop
      vertex -19 -13 1
      vertex -13.25 -8.75 1
      vertex -19 13 1
    endloop
  endfacet
  facet normal 1 -0 0
    outer loop
      vertex 19 -13 1
      vertex 19 13 -1
      vertex 19 13 1
    endloop
  endfacet
  facet normal 1 0 0
    outer loop
      vertex 19 13 -1
      vertex 19 -13 1
      vertex 19 -13 -1
    endloop
  endfacet
  facet normal 0 1 0
    outer loop
      vertex 19 13 1
      vertex 5 13 0
      vertex -19 13 1
    endloop
  endfacet
  facet normal 0 1 -0
    outer loop
      vertex 19 13 -1
      vertex 5 13 0
      vertex 19 13 1
    endloop
  endfacet
  facet normal 0 1 0
    outer loop
      vertex 5 13 0
      vertex 19 13 -1
      vertex 5 13 -1
    endloop
  endfacet
  facet normal 0 1 -0
    outer loop
      vertex -5 13 0
      vertex -19 13 1
      vertex 5 13 0
    endloop
  endfacet
  facet normal 0 1 0
    outer loop
      vertex -19 13 -1
      vertex -5 13 0
      vertex -5 13 -1
    endloop
  endfacet
  facet normal 0 1 0
    outer loop
      vertex -5 13 0
      vertex -19 13 -1
      vertex -19 13 1
    endloop
  endfacet
  facet normal 0 0 -1
    outer loop
      vertex -11 -13 -1
      vertex -13.25 -8.75 -1
      vertex -11 -8.75 -1
    endloop
  endfacet
  facet normal -0 0 -1
    outer loop
      vertex -13.25 -8.75 -1
      vertex -19 -13 -1
      vertex -13.25 8.75 -1
    endloop
  endfacet
  facet normal 0 0 -1
    outer loop
      vertex -19 -13 -1
      vertex -13.25 -8.75 -1
      vertex -11 -13 -1
    endloop
  endfacet
  facet normal 0 0 -1
    outer loop
      vertex 19 -13 -1
      vertex 13.25 -8.75 -1
      vertex 19 13 -1
    endloop
  endfacet
  facet normal 0 0 -1
    outer loop
      vertex 11 -13 -1
      vertex 13.25 -8.75 -1
      vertex 19 -13 -1
    endloop
  endfacet
  facet normal -0 0 -1
    outer loop
      vertex 13.25 -8.75 -1
      vertex 11 -13 -1
      vertex 11 -8.75 -1
    endloop
  endfacet
  facet normal 0 0 -1
    outer loop
      vertex 13.25 8.75 -1
      vertex 19 13 -1
      vertex 13.25 -8.75 -1
    endloop
  endfacet
  facet normal 0 0 -1
    outer loop
      vertex 5 13 -1
      vertex 13.25 8.75 -1
      vertex 5 10.75 -1
    endloop
  endfacet
  facet normal 0 0 -1
    outer loop
      vertex 13.25 8.75 -1
      vertex 5 13 -1
      vertex 19 13 -1
    endloop
  endfacet
  facet normal 0 0 -1
    outer loop
      vertex 13.25 8.75 -1
      vertex -5 10.75 -1
      vertex 5 10.75 -1
    endloop
  endfacet
  facet normal 0 0 -1
    outer loop
      vertex -13.25 8.75 -1
      vertex -5 10.75 -1
      vertex 13.25 8.75 -1
    endloop
  endfacet
  facet normal 0 0 -1
    outer loop
      vertex -13.25 8.75 -1
      vertex -5 13 -1
      vertex -5 10.75 -1
    endloop
  endfacet
  facet normal 0 0 -1
    outer loop
      vertex -13.25 8.75 -1
      vertex -19 13 -1
      vertex -5 13 -1
    endloop
  endfacet
  facet normal 0 0 -1
    outer loop
      vertex -19 13 -1
      vertex -13.25 8.75 -1
      vertex -19 -13 -1
    endloop
  endfacet
  facet normal 0 -1 0
    outer loop
      vertex 11 -13 -1
      vertex 19 -13 1
      vertex 11 -13 1
    endloop
  endfacet
  facet normal 0 -1 -0
    outer loop
      vertex 19 -13 1
      vertex 11 -13 -1
      vertex 19 -13 -1
    endloop
  endfacet
  facet normal 0 -1 0
    outer loop
      vertex -19 -13 -1
      vertex -11 -13 1
      vertex -19 -13 1
    endloop
  endfacet
  facet normal 0 -1 -0
    outer loop
      vertex -11 -13 1
      vertex -19 -13 -1
      vertex -11 -13 -1
    endloop
  endfacet
  facet normal 1 -0 0
    outer loop
      vertex -13.25 -8.75 1
      vertex -13.25 8.75 -1
      vertex -13.25 8.75 1
    endloop
  endfacet
  facet normal 1 0 0
    outer loop
      vertex -13.25 8.75 -1
      vertex -13.25 -8.75 1
      vertex -13.25 -8.75 -1
    endloop
  endfacet
  facet normal -1 0 0
    outer loop
      vertex 13.25 -8.75 -1
      vertex 13.25 8.75 1
      vertex 13.25 8.75 -1
    endloop
  endfacet
  facet normal -1 -0 0
    outer loop
      vertex 13.25 8.75 1
      vertex 13.25 -8.75 -1
      vertex 13.25 -8.75 1
    endloop
  endfacet
  facet normal 0 -1 0
    outer loop
      vertex -13.25 8.75 -1
      vertex 13.25 8.75 1
      vertex -13.25 8.75 1
    endloop
  endfacet
  facet normal 0 -1 -0
    outer loop
      vertex 13.25 8.75 1
      vertex -13.25 8.75 -1
      vertex 13.25 8.75 -1
    endloop
  endfacet
  facet normal 0 1 -0
    outer loop
      vertex 13.25 -8.75 -1
      vertex 11 -8.75 1
      vertex 13.25 -8.75 1
    endloop
  endfacet
  facet normal 0 1 0
    outer loop
      vertex 11 -8.75 1
      vertex 13.25 -8.75 -1
      vertex 11 -8.75 -1
    endloop
  endfacet
  facet normal 0 1 -0
    outer loop
      vertex -11 -8.75 -1
      vertex -13.25 -8.75 1
      vertex -11 -8.75 1
    endloop
  endfacet
  facet normal 0 1 0
    outer loop
      vertex -13.25 -8.75 1
      vertex -11 -8.75 -1
      vertex -13.25 -8.75 -1
    endloop
  endfacet
  facet normal 1 -0 0
    outer loop
      vertex -11 -13 1
      vertex -11 -8.75 -1
      vertex -11 -8.75 1
    endloop
  endfacet
  facet normal 1 0 0
    outer loop
      vertex -11 -8.75 -1
      vertex -11 -13 1
      vertex -11 -13 -1
    endloop
  endfacet
  facet normal -1 0 0
    outer loop
      vertex 11 -13 -1
      vertex 11 -8.75 1
      vertex 11 -8.75 -1
    endloop
  endfacet
  facet normal -1 -0 0
    outer loop
      vertex 11 -8.75 1
      vertex 11 -13 -1
      vertex 11 -13 1
    endloop
  endfacet
  facet normal 1 -0 0
    outer loop
      vertex -5 10.75 0
      vertex -5 13 -1
      vertex -5 13 0
    endloop
  endfacet
  facet normal 1 0 0
    outer loop
      vertex -5 13 -1
      vertex -5 10.75 0
      vertex -5 10.75 -1
    endloop
  endfacet
  facet normal 0 0 -1
    outer loop
      vertex -5 10.75 0
      vertex 5 13 0
      vertex 5 10.75 0
    endloop
  endfacet
  facet normal -0 0 -1
    outer loop
      vertex 5 13 0
      vertex -5 10.75 0
      vertex -5 13 0
    endloop
  endfacet
  facet normal -1 0 0
    outer loop
      vertex 5 10.75 -1
      vertex 5 13 0
      vertex 5 13 -1
    endloop
  endfacet
  facet normal -1 -0 0
    outer loop
      vertex 5 13 0
      vertex 5 10.75 -1
      vertex 5 10.75 0
    endloop
  endfacet
  facet normal 0 1 -0
    outer loop
      vertex 5 10.75 -1
      vertex -5 10.75 0
      vertex 5 10.75 0
    endloop
  endfacet
  facet normal 0 1 0
    outer loop
      vertex -5 10.75 0
      vertex 5 10.75 -1
      vertex -5 10.75 -1
    endloop
  endfacet
endsolid OpenSCAD_Model
